<mxfile host="Electron" modified="2023-11-09T08:42:28.522Z" agent="Mozilla/5.0 (Windows NT 10.0; Win64; x64) AppleWebKit/537.36 (KHTML, like Gecko) draw.io/21.7.5 Chrome/114.0.5735.289 Electron/25.8.1 Safari/537.36" etag="Z_Z9QQnEieonAJ-kSZMf" version="21.7.5" type="device">
  <diagram name="Page-1" id="-lEOCrR2CvXYE3znhfAA">
    <mxGraphModel dx="802" dy="461" grid="1" gridSize="10" guides="1" tooltips="1" connect="1" arrows="1" fold="1" page="1" pageScale="1" pageWidth="850" pageHeight="1100" math="0" shadow="0">
      <root>
        <mxCell id="0" />
        <mxCell id="1" parent="0" />
        <mxCell id="NreLPTwkFURADX3NZqxV-1" value="" style="rounded=0;whiteSpace=wrap;html=1;fillColor=none;strokeColor=#464F55;" vertex="1" parent="1">
          <mxGeometry x="140" y="200" width="270" height="330" as="geometry" />
        </mxCell>
        <mxCell id="MfawUsH6QO7XmPJYs-_u-1" value="" style="rounded=1;whiteSpace=wrap;html=1;strokeColor=#464F55;" parent="1" vertex="1">
          <mxGeometry x="160" y="220" width="50" height="50" as="geometry" />
        </mxCell>
        <mxCell id="MfawUsH6QO7XmPJYs-_u-2" value="" style="rounded=1;whiteSpace=wrap;html=1;strokeColor=#464F55;" parent="1" vertex="1">
          <mxGeometry x="220" y="220" width="50" height="50" as="geometry" />
        </mxCell>
        <mxCell id="MfawUsH6QO7XmPJYs-_u-3" value="" style="rounded=1;whiteSpace=wrap;html=1;strokeColor=#464F55;" parent="1" vertex="1">
          <mxGeometry x="280" y="220" width="50" height="50" as="geometry" />
        </mxCell>
        <mxCell id="MfawUsH6QO7XmPJYs-_u-4" value="" style="rounded=1;whiteSpace=wrap;html=1;strokeColor=#464F55;" parent="1" vertex="1">
          <mxGeometry x="340" y="220" width="50" height="50" as="geometry" />
        </mxCell>
        <mxCell id="MfawUsH6QO7XmPJYs-_u-5" value="&lt;font color=&quot;#ffffff&quot;&gt;7&lt;br style=&quot;border-color: var(--border-color);&quot;&gt;home&lt;/font&gt;" style="rounded=1;whiteSpace=wrap;html=1;fillColor=#2C6879;strokeColor=#464F55;" parent="1" vertex="1">
          <mxGeometry x="160" y="280" width="50" height="50" as="geometry" />
        </mxCell>
        <mxCell id="MfawUsH6QO7XmPJYs-_u-6" value="&lt;font color=&quot;#ffffff&quot;&gt;8&lt;/font&gt;" style="rounded=1;whiteSpace=wrap;html=1;fillColor=#2C6879;strokeColor=#464F55;" parent="1" vertex="1">
          <mxGeometry x="220" y="280" width="50" height="50" as="geometry" />
        </mxCell>
        <mxCell id="MfawUsH6QO7XmPJYs-_u-7" value="" style="rounded=1;whiteSpace=wrap;html=1;strokeColor=#464F55;" parent="1" vertex="1">
          <mxGeometry x="280" y="280" width="50" height="50" as="geometry" />
        </mxCell>
        <mxCell id="MfawUsH6QO7XmPJYs-_u-9" value="&lt;font color=&quot;#ffffff&quot;&gt;4&lt;/font&gt;" style="rounded=1;whiteSpace=wrap;html=1;fillColor=#2C6879;strokeColor=#464F55;" parent="1" vertex="1">
          <mxGeometry x="160" y="340" width="50" height="50" as="geometry" />
        </mxCell>
        <mxCell id="MfawUsH6QO7XmPJYs-_u-10" value="&lt;font color=&quot;#ffffff&quot;&gt;5&lt;/font&gt;" style="rounded=1;whiteSpace=wrap;html=1;fillColor=#2C6879;strokeColor=#464F55;" parent="1" vertex="1">
          <mxGeometry x="220" y="340" width="50" height="50" as="geometry" />
        </mxCell>
        <mxCell id="MfawUsH6QO7XmPJYs-_u-11" value="&lt;font color=&quot;#ffffff&quot;&gt;6&lt;/font&gt;" style="rounded=1;whiteSpace=wrap;html=1;fillColor=#2C6879;strokeColor=#464F55;" parent="1" vertex="1">
          <mxGeometry x="280" y="340" width="50" height="50" as="geometry" />
        </mxCell>
        <mxCell id="MfawUsH6QO7XmPJYs-_u-12" value="" style="rounded=1;whiteSpace=wrap;html=1;strokeColor=#464F55;" parent="1" vertex="1">
          <mxGeometry x="340" y="280" width="50" height="110" as="geometry" />
        </mxCell>
        <mxCell id="MfawUsH6QO7XmPJYs-_u-13" value="" style="rounded=1;whiteSpace=wrap;html=1;strokeColor=#464F55;" parent="1" vertex="1">
          <mxGeometry x="160" y="400" width="50" height="50" as="geometry" />
        </mxCell>
        <mxCell id="MfawUsH6QO7XmPJYs-_u-14" value="&lt;font color=&quot;#ffffff&quot;&gt;2&lt;/font&gt;" style="rounded=1;whiteSpace=wrap;html=1;fillColor=#2C6879;strokeColor=#464F55;" parent="1" vertex="1">
          <mxGeometry x="220" y="400" width="50" height="50" as="geometry" />
        </mxCell>
        <mxCell id="MfawUsH6QO7XmPJYs-_u-15" value="" style="rounded=1;whiteSpace=wrap;html=1;strokeColor=#464F55;" parent="1" vertex="1">
          <mxGeometry x="280" y="400" width="50" height="50" as="geometry" />
        </mxCell>
        <mxCell id="MfawUsH6QO7XmPJYs-_u-17" value="" style="rounded=1;whiteSpace=wrap;html=1;strokeColor=#464F55;" parent="1" vertex="1">
          <mxGeometry x="160" y="460" width="110" height="50" as="geometry" />
        </mxCell>
        <mxCell id="MfawUsH6QO7XmPJYs-_u-19" value="" style="rounded=1;whiteSpace=wrap;html=1;strokeColor=#464F55;" parent="1" vertex="1">
          <mxGeometry x="280" y="460" width="50" height="50" as="geometry" />
        </mxCell>
        <mxCell id="MfawUsH6QO7XmPJYs-_u-20" value="" style="rounded=1;whiteSpace=wrap;html=1;strokeColor=#464F55;" parent="1" vertex="1">
          <mxGeometry x="340" y="400" width="50" height="110" as="geometry" />
        </mxCell>
        <mxCell id="MfawUsH6QO7XmPJYs-_u-21" value="" style="triangle;whiteSpace=wrap;html=1;strokeColor=#FFFFFF;" parent="1" vertex="1">
          <mxGeometry x="310" y="360" width="10" height="10" as="geometry" />
        </mxCell>
        <mxCell id="MfawUsH6QO7XmPJYs-_u-22" value="" style="triangle;whiteSpace=wrap;html=1;rotation=-180;strokeColor=#FFFFFF;" parent="1" vertex="1">
          <mxGeometry x="170" y="360" width="10" height="10" as="geometry" />
        </mxCell>
        <mxCell id="MfawUsH6QO7XmPJYs-_u-23" value="" style="triangle;whiteSpace=wrap;html=1;rotation=90;strokeColor=#FFFFFF;" parent="1" vertex="1">
          <mxGeometry x="240" y="432" width="10" height="10" as="geometry" />
        </mxCell>
        <mxCell id="MfawUsH6QO7XmPJYs-_u-24" value="" style="triangle;whiteSpace=wrap;html=1;rotation=-90;strokeColor=#FFFFFF;" parent="1" vertex="1">
          <mxGeometry x="240" y="288" width="10" height="10" as="geometry" />
        </mxCell>
      </root>
    </mxGraphModel>
  </diagram>
</mxfile>
